<svg id="visual" viewBox="0 0 1920 800" width="1920" height="800" xmlns="http://www.w3.org/2000/svg" xmlns:xlink="http://www.w3.org/1999/xlink" version="1.1"><g stroke-width="1" stroke-linejoin="bevel"><path d="M1034.7 433L875.3 422L867.3 574Z" fill="#8a191a" stroke="#8a191a"></path><path d="M867.3 574L1076.7 588L1034.7 433Z" fill="#680405" stroke="#680405"></path><path d="M867.3 574L1039.7 800L1076.7 588Z" fill="#982121" stroke="#982121"></path><path d="M1076.7 588L1250 413L1034.7 433Z" fill="#9f2525" stroke="#9f2525"></path><path d="M1069.7 167L855.3 161L875.3 422Z" fill="#8a191a" stroke="#8a191a"></path><path d="M1273 592L1250 413L1076.7 588Z" fill="#750c0f" stroke="#750c0f"></path><path d="M625 607L829.3 800L867.3 574Z" fill="#6f080b" stroke="#6f080b"></path><path d="M867.3 574L829.3 800L1039.7 800Z" fill="#911d1d" stroke="#911d1d"></path><path d="M855.3 161L631 409L875.3 422Z" fill="#8a191a" stroke="#8a191a"></path><path d="M875.3 422L631 409L867.3 574Z" fill="#750c0f" stroke="#750c0f"></path><path d="M1294 800L1273 592L1076.7 588Z" fill="#750c0f" stroke="#750c0f"></path><path d="M631 409L625 607L867.3 574Z" fill="#911d1d" stroke="#911d1d"></path><path d="M1069.7 167L875.3 422L1034.7 433Z" fill="#8a191a" stroke="#8a191a"></path><path d="M1250 413L1069.7 167L1034.7 433Z" fill="#9f2525" stroke="#9f2525"></path><path d="M625 607L631 800L829.3 800Z" fill="#9f2525" stroke="#9f2525"></path><path d="M855.3 161L643 177L631 409Z" fill="#8a191a" stroke="#8a191a"></path><path d="M1039.7 800L1294 800L1076.7 588Z" fill="#982121" stroke="#982121"></path><path d="M1463.3 229L1291 178L1250 413Z" fill="#9f2525" stroke="#9f2525"></path><path d="M1250 413L1291 178L1069.7 167Z" fill="#982121" stroke="#982121"></path><path d="M1466.3 403L1250 413L1273 592Z" fill="#620000" stroke="#620000"></path><path d="M1246 0L1039.7 0L1069.7 167Z" fill="#831516" stroke="#831516"></path><path d="M1069.7 167L1039.7 0L855.3 161Z" fill="#7c1113" stroke="#7c1113"></path><path d="M855.3 161L658 0L643 177Z" fill="#680405" stroke="#680405"></path><path d="M1039.7 0L843.3 0L855.3 161Z" fill="#620000" stroke="#620000"></path><path d="M1476.3 629L1466.3 403L1273 592Z" fill="#a62929" stroke="#a62929"></path><path d="M1294 800L1476.3 629L1273 592Z" fill="#911d1d" stroke="#911d1d"></path><path d="M410.7 234L400.7 368L631 409Z" fill="#6f080b" stroke="#6f080b"></path><path d="M631 409L400.7 368L625 607Z" fill="#6f080b" stroke="#6f080b"></path><path d="M625 607L461.7 800L631 800Z" fill="#6f080b" stroke="#6f080b"></path><path d="M410.7 234L631 409L643 177Z" fill="#7c1113" stroke="#7c1113"></path><path d="M391.7 639L461.7 800L625 607Z" fill="#911d1d" stroke="#911d1d"></path><path d="M400.7 368L391.7 639L625 607Z" fill="#680405" stroke="#680405"></path><path d="M843.3 0L658 0L855.3 161Z" fill="#680405" stroke="#680405"></path><path d="M1479.3 0L1463.3 229L1739.7 224Z" fill="#911d1d" stroke="#911d1d"></path><path d="M1466.3 403L1463.3 229L1250 413Z" fill="#680405" stroke="#680405"></path><path d="M1291 178L1246 0L1069.7 167Z" fill="#7c1113" stroke="#7c1113"></path><path d="M1479.3 0L1246 0L1291 178Z" fill="#6f080b" stroke="#6f080b"></path><path d="M448.7 0L410.7 234L643 177Z" fill="#831516" stroke="#831516"></path><path d="M1294 800L1521.3 800L1476.3 629Z" fill="#7c1113" stroke="#7c1113"></path><path d="M1476.3 629L1691.7 419L1466.3 403Z" fill="#750c0f" stroke="#750c0f"></path><path d="M658 0L448.7 0L643 177Z" fill="#750c0f" stroke="#750c0f"></path><path d="M1691.7 419L1463.3 229L1466.3 403Z" fill="#6f080b" stroke="#6f080b"></path><path d="M1463.3 229L1479.3 0L1291 178Z" fill="#7c1113" stroke="#7c1113"></path><path d="M1730.7 581L1691.7 419L1476.3 629Z" fill="#982121" stroke="#982121"></path><path d="M242.3 227L400.7 368L410.7 234Z" fill="#680405" stroke="#680405"></path><path d="M242.3 227L198.3 426L400.7 368Z" fill="#620000" stroke="#620000"></path><path d="M400.7 368L198.3 426L391.7 639Z" fill="#a62929" stroke="#a62929"></path><path d="M391.7 639L182.3 800L461.7 800Z" fill="#7c1113" stroke="#7c1113"></path><path d="M448.7 0L242.3 227L410.7 234Z" fill="#a62929" stroke="#a62929"></path><path d="M198.3 426L188.3 634L391.7 639Z" fill="#750c0f" stroke="#750c0f"></path><path d="M1684.7 800L1730.7 581L1476.3 629Z" fill="#a62929" stroke="#a62929"></path><path d="M1521.3 800L1684.7 800L1476.3 629Z" fill="#a62929" stroke="#a62929"></path><path d="M188.3 634L182.3 800L391.7 639Z" fill="#8a191a" stroke="#8a191a"></path><path d="M1920 421L1739.7 224L1691.7 419Z" fill="#7c1113" stroke="#7c1113"></path><path d="M1691.7 419L1739.7 224L1463.3 229Z" fill="#6f080b" stroke="#6f080b"></path><path d="M0 389L0 575L198.3 426Z" fill="#620000" stroke="#620000"></path><path d="M198.3 426L0 575L188.3 634Z" fill="#9f2525" stroke="#9f2525"></path><path d="M188.3 634L0 800L182.3 800Z" fill="#6f080b" stroke="#6f080b"></path><path d="M448.7 0L198.3 0L242.3 227Z" fill="#911d1d" stroke="#911d1d"></path><path d="M1739.7 224L1742.7 0L1479.3 0Z" fill="#831516" stroke="#831516"></path><path d="M0 389L198.3 426L0 239Z" fill="#982121" stroke="#982121"></path><path d="M0 239L198.3 426L242.3 227Z" fill="#6f080b" stroke="#6f080b"></path><path d="M1730.7 581L1920 421L1691.7 419Z" fill="#6f080b" stroke="#6f080b"></path><path d="M1739.7 224L1920 0L1742.7 0Z" fill="#7c1113" stroke="#7c1113"></path><path d="M1920 629L1920 421L1730.7 581Z" fill="#8a191a" stroke="#8a191a"></path><path d="M1684.7 800L1920 629L1730.7 581Z" fill="#8a191a" stroke="#8a191a"></path><path d="M198.3 0L0 239L242.3 227Z" fill="#8a191a" stroke="#8a191a"></path><path d="M0 575L0 800L188.3 634Z" fill="#7c1113" stroke="#7c1113"></path><path d="M1920 421L1920 231L1739.7 224Z" fill="#620000" stroke="#620000"></path><path d="M1684.7 800L1920 800L1920 629Z" fill="#750c0f" stroke="#750c0f"></path><path d="M198.3 0L0 0L0 239Z" fill="#831516" stroke="#831516"></path><path d="M1920 231L1920 0L1739.7 224Z" fill="#911d1d" stroke="#911d1d"></path></g></svg>